<?xml version="1.0" standalone="no"?><!DOCTYPE svg PUBLIC "-//W3C//DTD SVG 1.1//EN" "http://www.w3.org/Graphics/SVG/1.1/DTD/svg11.dtd"><svg t="1649403756527" class="icon" viewBox="0 0 1024 1024" version="1.1" xmlns="http://www.w3.org/2000/svg" p-id="2255" xmlns:xlink="http://www.w3.org/1999/xlink" width="200" height="200"><defs><style type="text/css">@font-face { font-family: feedback-iconfont; src: url("//at.alicdn.com/t/font_1031158_u69w8yhxdu.woff2?t=1630033759944") format("woff2"), url("//at.alicdn.com/t/font_1031158_u69w8yhxdu.woff?t=1630033759944") format("woff"), url("//at.alicdn.com/t/font_1031158_u69w8yhxdu.ttf?t=1630033759944") format("truetype"); }
</style></defs><path d="M577 248.6c21.2 23.6-23.6 85.3-52.7 85.3s-74.5-61.2-52.7-85.3c20.6-22.9 52.7 12.1 52.7 12.1s32.2-35 52.7-12.1z" fill="#f4ea2a" p-id="2256"></path><path d="M524.3 343.9c-23.8 0-50.9-27.8-62.3-53.5-8.9-19.9-8.1-37.1 2.2-48.5 6.5-7.2 14.8-11 23.9-11.1h0.2c14.4 0 28 9.3 36.1 16.1 8.1-6.8 21.6-16.1 36.1-16.1h0.2c9.2 0 17.5 3.9 23.9 11.1 10.1 11.2 10.8 28.4 1.9 48.4-11.6 25.8-38.6 53.6-62.2 53.6z m-36-93.1h-0.1c-3.5 0-6.4 1.4-9.2 4.5-6.5 7.2-1.3 21.3 1.2 27 9.4 21 31.2 41.6 44.1 41.6 13 0 34.2-20.3 43.8-41.7 5.3-12 5.9-22 1.5-26.9-2.7-3-5.6-4.4-9.2-4.5h-0.1c-10.9 0-24.7 12.3-28.7 16.6-1.9 2.1-4.6 3.2-7.4 3.2-2.8 0-5.5-1.2-7.4-3.2-3.8-4.3-17.7-16.6-28.5-16.6z" fill="#f4ea2a" p-id="2257"></path><path d="M876.3 331c19.6 21.8-21.8 78.9-48.7 78.9-26.9 0-68.8-56.6-48.7-78.9 19-21.2 48.7 11.2 48.7 11.2s29.7-32.4 48.7-11.2z" fill="#f4ea2a" p-id="2258"></path><path d="M827.6 419.8c-22.3 0-47.6-25.9-58.3-49.9-8.3-18.7-7.6-34.9 2.1-45.7 6.1-6.8 14-10.4 22.7-10.5 13.4 0 25.9 8.3 33.5 14.6 7.6-6.4 20.2-14.7 33.5-14.6 8.7 0 16.6 3.7 22.7 10.5 9.6 10.6 10.2 26.8 1.9 45.5-10.8 24.2-36 50.1-58.1 50.1z m-33.4-86c-3.2 0-5.6 1.2-8 3.9-4 4.4-3.5 13.4 1.3 24.2 9.4 21.1 29.6 38 40 38 10.3 0 30.4-17 39.8-38.1 4.8-10.8 5.4-19.8 1.5-24-2.4-2.7-4.8-3.9-7.9-3.9h-0.1c-9.1 0-21.4 10.2-26 15.1-1.9 2.1-4.6 3.2-7.4 3.2s-5.5-1.2-7.4-3.2c-3.4-4-16-15.2-25.8-15.2z" fill="#f4ea2a" p-id="2259"></path><path d="M269.8 331c19.6 21.8-21.8 78.9-48.7 78.9s-68.8-56.6-48.7-78.9c19-21.2 48.7 11.2 48.7 11.2s29.7-32.4 48.7-11.2z" fill="#f4ea2a" p-id="2260"></path><path d="M221.1 419.8c-22.3 0-47.6-25.9-58.3-49.9-8.3-18.7-7.6-34.9 2.1-45.7 6.1-6.8 14-10.4 22.7-10.5h0.2c13.3 0 25.7 8.3 33.3 14.6 7.6-6.4 20.1-14.7 33.5-14.6 8.7 0 16.6 3.7 22.7 10.5 9.6 10.6 10.2 26.8 1.9 45.5-10.8 24.2-36 50.1-58.1 50.1z m-33.4-86c-3.2 0-5.6 1.2-8 3.9-4 4.4-3.5 13.4 1.3 24.2 9.4 21.1 29.6 38 40 38 10.3 0 30.4-17 39.8-38.1 4.8-10.8 5.4-19.8 1.5-24-2.4-2.7-4.8-3.8-7.9-3.9-9.7-0.1-22.4 11.2-26.1 15.1-1.9 2-4.6 3.2-7.3 3.2-2.8 0-5.5-1.2-7.3-3.2-3.6-4-16.2-15.2-26-15.2z" fill="#f4ea2a" p-id="2261"></path><path d="M757 803.3H298.4c-9.4 0-17.5-6.5-19.5-15.7l-70.2-320.4c-1.8-8.2 1.7-16.6 8.7-21.1 7-4.5 16.1-4.2 22.8 0.8L394 562.4l116.2-174.3c3.7-5.6 10-8.9 16.6-8.9 6.7 0 12.9 3.3 16.6 8.9l116.2 174.2 152.2-115.5c6.6-5 15.7-5.4 22.8-1 7.1 4.5 10.6 12.8 8.9 21l-67 320.4c-1.9 9.4-10 16.1-19.5 16.1z m-442.5-40h426.2l52.7-252.2-126.5 96c-4.4 3.3-10 4.7-15.4 3.8-5.4-0.9-10.3-4-13.3-8.6l-111.4-167-111.2 166.9c-3.1 4.6-7.9 7.7-13.3 8.6-5.4 0.9-11-0.4-15.4-3.7l-127.6-95.9 55.2 252.1z" fill="#f4ea2a" p-id="2262"></path></svg>