<svg xmlns="http://www.w3.org/2000/svg" width="126" height="126" viewBox="0 0 126 126">
  <defs>
    <style>
      .cls-1 {
        fill: #ffe731;
      }
    </style>
  </defs>
  <g id="logo-黄" transform="translate(-2045.721 -2439.764)">
    <rect id="矩形_34" data-name="矩形 34" class="cls-1" width="126" height="126" transform="translate(2045.721 2439.764)"/>
    <g id="logo" transform="translate(2057.721 2477.764)">
      <path id="减去_6" data-name="减去 6" d="M1211.725,1311.906a7.861,7.861,0,0,1-1.014-.066l4.026-6.974,2.646,4.582c-.061.064-.123.128-.184.19a7.726,7.726,0,0,1-5.475,2.268Zm-1.82-.216h0a7.7,7.7,0,0,1-2.508-1.107,7.75,7.75,0,0,1-2.805-3.408c-.025-.058-.049-.116-.073-.177h8.093Zm8.01-2.873-3.955-6.85h5.194c.062.209.116.423.158.635a7.8,7.8,0,0,1,0,3.121,7.721,7.721,0,0,1-1.165,2.769c-.074.11-.152.219-.232.325h0Zm-8.362-2.592h-5.292c-.045-.166-.086-.335-.12-.5a7.836,7.836,0,0,1,0-3.121,7.722,7.722,0,0,1,1.165-2.769c.1-.145.2-.289.31-.426Zm-.754-2.854h0l-2.646-4.582c.033-.035.066-.068.1-.1a7.75,7.75,0,0,1,2.463-1.659,7.7,7.7,0,0,1,1.453-.451,7.793,7.793,0,0,1,1.56-.157,7.918,7.918,0,0,1,1.046.07l-3.972,6.881Zm10.08-2.178h-7.929l2.626-4.549a7.758,7.758,0,0,1,5.284,4.508l.018.043Z" transform="translate(-1189.516 -1280.692)"/>
      <path id="路径_20" data-name="路径 20" d="M1257.134,1276.6l.075-.066-.262-.3.606-.7-.075-.064a65.056,65.056,0,0,0,6.253-9.8,3.519,3.519,0,1,0-6.25-3.236,58.016,58.016,0,0,1-5.376,8.485,65.152,65.152,0,0,0-46.072-19.184,64.249,64.249,0,0,0-40.4,14.1l-2.754,2.192,4.383,5.507,2.754-2.191a57.275,57.275,0,0,1,36.02-12.567,58.09,58.09,0,0,1,41.46,17.486,57.858,57.858,0,0,1-41.46,17.492,57.275,57.275,0,0,1-36.02-12.567l-2.754-2.191-4.383,5.507,2.754,2.192a64.929,64.929,0,0,0,86.473-5.084,58.015,58.015,0,0,1,5.379,8.482,3.519,3.519,0,1,0,6.25-3.236A65.07,65.07,0,0,0,1257.134,1276.6Z" transform="translate(-1162.876 -1251.728)"/>
    </g>
  </g>
</svg>
