<svg id="icon_步数" xmlns="http://www.w3.org/2000/svg" width="24" height="24" viewBox="0 0 24 24">
  <rect id="矩形_46" data-name="矩形 46" width="24" height="24" fill="#fff" opacity="0"/>
  <path id="路径_22" data-name="路径 22" d="M34.748,32.346a4.287,4.287,0,0,0-3.273,4.736,43.278,43.278,0,0,0,.919,4.344l4.55-.3a8.966,8.966,0,0,1,1.1-3.959C38.664,35.808,37.628,31.632,34.748,32.346ZM32.52,42.472c.037.214.063.415.078.595.11,1.413.917,3.143,2.715,2.825s2.178-1.774,1.763-3.477q-.03-.118-.05-.238ZM45.468,30.027c-2.594-1.439-4.684,2.319-4.442,3.8a9.014,9.014,0,0,1,.031,4.109l4.316,1.473a42.807,42.807,0,0,0,2.019-3.955,4.287,4.287,0,0,0-1.923-5.426Zm-5.026,9.247c-.848,1.536-.856,3.04.794,3.819s2.884-.684,3.358-2.021c.061-.169.138-.355.229-.554l-4.27-1.459q-.052.11-.11.216Z" transform="translate(-27.463 -25.705)" fill="#999"/>
</svg>
