<svg id="icon_拍照" xmlns="http://www.w3.org/2000/svg" width="24" height="24" viewBox="0 0 24 24">
  <rect id="矩形_47" data-name="矩形 47" width="24" height="24" fill="#fff" opacity="0"/>
  <path id="路径_23" data-name="路径 23" d="M74.284,198.856A2.285,2.285,0,1,1,72,196.571,2.292,2.292,0,0,1,74.284,198.856Zm5.713-4v8.57a1.146,1.146,0,0,1-1.143,1.143H65.143A1.146,1.146,0,0,1,64,203.426v-8.57a1.146,1.146,0,0,1,1.143-1.143h2.985L69.57,192h4.571l1.443,1.714h3.271A1.146,1.146,0,0,1,80,194.857Zm-4.571,4A3.428,3.428,0,1,0,72,202.284,3.42,3.42,0,0,0,75.426,198.856Z" transform="translate(-60 -186)" fill="#999"/>
</svg>
